<?xml version="1.0" encoding="utf-8"?>
<svg xmlns="http://www.w3.org/2000/svg" width="144" height="120" viewBox="0 0 144 120" role="img">
<style>
text { font-family: "Courier New", monospace; font-size:20px; }
</style>
<rect x="0"  y="0"  width="144" height="120" fill="#000000"/>

<g opacity="0">
<text x="0" y="0" xml:space="preserve" dominant-baseline="hanging">
<tspan x="0" y="2" fill="#800000"> </tspan>
<tspan x="12" y="2" fill="#800000"> </tspan>
<tspan x="24" y="2" fill="#008000">&lt;</tspan>
<tspan x="36" y="2" fill="#008000">=</tspan>
<tspan x="48" y="2" fill="#008000">&gt;</tspan>
<tspan x="60" y="2" fill="#4e4e4e">\</tspan>
<tspan x="72" y="2" fill="#800000"> </tspan>
<tspan x="84" y="2" fill="#800000"> </tspan>
<tspan x="96" y="2" fill="#800000"> </tspan>
<tspan x="108" y="2" fill="#800000"> </tspan>
<tspan x="120" y="2" fill="#800000"> </tspan>
<tspan x="132" y="2" fill="#800000"> </tspan>
<tspan x="0" y="22" fill="#800000"> </tspan>
<tspan x="12" y="22" fill="#800000"> </tspan>
<tspan x="24" y="22" fill="#800000">,</tspan>
<tspan x="36" y="22" fill="#800000">.</tspan>
<tspan x="48" y="22" fill="#800000">.</tspan>
<tspan x="60" y="22" fill="#4e4e4e">\</tspan>
<tspan x="72" y="22" fill="#4e4e4e">\</tspan>
<tspan x="84" y="22" fill="#800000">.</tspan>
<tspan x="96" y="22" fill="#800000">.</tspan>
<tspan x="108" y="22" fill="#800000">,</tspan>
<tspan x="120" y="22" fill="#800000"> </tspan>
<tspan x="132" y="22" fill="#800000"> </tspan>
<tspan x="0" y="42" fill="#800000"> </tspan>
<tspan x="12" y="42" fill="#800000">&#x27;</tspan>
<tspan x="24" y="42" fill="#800000"> </tspan>
<tspan x="36" y="42" fill="#ff0000">&#x2F;</tspan>
<tspan x="48" y="42" fill="#ff0000">&#x2F;</tspan>
<tspan x="60" y="42" fill="#800000"> </tspan>
<tspan x="72" y="42" fill="#800000"> </tspan>
<tspan x="84" y="42" fill="#800000"> </tspan>
<tspan x="96" y="42" fill="#800000"> </tspan>
<tspan x="108" y="42" fill="#800000"> </tspan>
<tspan x="120" y="42" fill="#800000">&#x27;</tspan>
<tspan x="132" y="42" fill="#800000"> </tspan>
<tspan x="0" y="62" fill="#800000">|</tspan>
<tspan x="12" y="62" fill="#800000"> </tspan>
<tspan x="24" y="62" fill="#800000"> </tspan>
<tspan x="36" y="62" fill="#800000"> </tspan>
<tspan x="48" y="62" fill="#800000"> </tspan>
<tspan x="60" y="62" fill="#800000"> </tspan>
<tspan x="72" y="62" fill="#800000"> </tspan>
<tspan x="84" y="62" fill="#800000"> </tspan>
<tspan x="96" y="62" fill="#800000"> </tspan>
<tspan x="108" y="62" fill="#800000"> </tspan>
<tspan x="120" y="62" fill="#800000"> </tspan>
<tspan x="132" y="62" fill="#800000">|</tspan>
<tspan x="0" y="82" fill="#800000">|</tspan>
<tspan x="12" y="82" fill="#800000"> </tspan>
<tspan x="24" y="82" fill="#800000"> </tspan>
<tspan x="36" y="82" fill="#800000"> </tspan>
<tspan x="48" y="82" fill="#800000"> </tspan>
<tspan x="60" y="82" fill="#800000"> </tspan>
<tspan x="72" y="82" fill="#800000"> </tspan>
<tspan x="84" y="82" fill="#800000"> </tspan>
<tspan x="96" y="82" fill="#800000"> </tspan>
<tspan x="108" y="82" fill="#800000"> </tspan>
<tspan x="120" y="82" fill="#800000"> </tspan>
<tspan x="132" y="82" fill="#800000">|</tspan>
<tspan x="0" y="102" fill="#800000"> </tspan>
<tspan x="12" y="102" fill="#800000">&#x27;</tspan>
<tspan x="24" y="102" fill="#800000">.</tspan>
<tspan x="36" y="102" fill="#800000">_</tspan>
<tspan x="48" y="102" fill="#800000">_</tspan>
<tspan x="60" y="102" fill="#800000">.</tspan>
<tspan x="72" y="102" fill="#4e4e4e">~</tspan>
<tspan x="84" y="102" fill="#800000">.</tspan>
<tspan x="96" y="102" fill="#800000">_</tspan>
<tspan x="108" y="102" fill="#800000">.</tspan>
<tspan x="120" y="102" fill="#800000">&#x27;</tspan>
<tspan x="132" y="102" fill="#800000"> </tspan>
</text>
<animate attributeName="opacity" begin="0s" dur="1.5s" repeatCount="indefinite" calcMode="discrete" values="1;0;0;0;0;0" keyTimes="0;0.2;0.4;0.6;0.8;1" />
</g>

<g opacity="0">
<text x="0" y="0" xml:space="preserve" dominant-baseline="hanging">
<tspan x="0" y="2" fill="#800000"> </tspan>
<tspan x="12" y="2" fill="#800000"> </tspan>
<tspan x="24" y="2" fill="#008000">&lt;</tspan>
<tspan x="36" y="2" fill="#008000">=</tspan>
<tspan x="48" y="2" fill="#008000">&gt;</tspan>
<tspan x="60" y="2" fill="#4e4e4e">\</tspan>
<tspan x="72" y="2" fill="#800000"> </tspan>
<tspan x="84" y="2" fill="#800000"> </tspan>
<tspan x="96" y="2" fill="#800000"> </tspan>
<tspan x="108" y="2" fill="#800000"> </tspan>
<tspan x="120" y="2" fill="#800000"> </tspan>
<tspan x="132" y="2" fill="#800000"> </tspan>
<tspan x="0" y="22" fill="#800000"> </tspan>
<tspan x="12" y="22" fill="#800000"> </tspan>
<tspan x="24" y="22" fill="#800000">,</tspan>
<tspan x="36" y="22" fill="#800000">.</tspan>
<tspan x="48" y="22" fill="#800000">.</tspan>
<tspan x="60" y="22" fill="#4e4e4e">\</tspan>
<tspan x="72" y="22" fill="#4e4e4e">\</tspan>
<tspan x="84" y="22" fill="#800000">.</tspan>
<tspan x="96" y="22" fill="#800000">.</tspan>
<tspan x="108" y="22" fill="#800000">,</tspan>
<tspan x="120" y="22" fill="#800000"> </tspan>
<tspan x="132" y="22" fill="#800000"> </tspan>
<tspan x="0" y="42" fill="#800000"> </tspan>
<tspan x="12" y="42" fill="#800000">&#x27;</tspan>
<tspan x="24" y="42" fill="#800000"> </tspan>
<tspan x="36" y="42" fill="#ff0000">&#x2F;</tspan>
<tspan x="48" y="42" fill="#ff0000">&#x2F;</tspan>
<tspan x="60" y="42" fill="#800000"> </tspan>
<tspan x="72" y="42" fill="#800000"> </tspan>
<tspan x="84" y="42" fill="#800000"> </tspan>
<tspan x="96" y="42" fill="#800000"> </tspan>
<tspan x="108" y="42" fill="#ffffff">_</tspan>
<tspan x="120" y="42" fill="#800000">&#x27;</tspan>
<tspan x="132" y="42" fill="#800000"> </tspan>
<tspan x="0" y="62" fill="#800000">|</tspan>
<tspan x="12" y="62" fill="#800000"> </tspan>
<tspan x="24" y="62" fill="#800000"> </tspan>
<tspan x="36" y="62" fill="#800000"> </tspan>
<tspan x="48" y="62" fill="#800000"> </tspan>
<tspan x="60" y="62" fill="#800000"> </tspan>
<tspan x="72" y="62" fill="#800000"> </tspan>
<tspan x="84" y="62" fill="#800000"> </tspan>
<tspan x="96" y="62" fill="#ffffff">&#x2F;</tspan>
<tspan x="108" y="62" fill="#800000"> </tspan>
<tspan x="120" y="62" fill="#800000"> </tspan>
<tspan x="132" y="62" fill="#800000"> </tspan>
<tspan x="0" y="82" fill="#800000">|</tspan>
<tspan x="12" y="82" fill="#800000"> </tspan>
<tspan x="24" y="82" fill="#800000"> </tspan>
<tspan x="36" y="82" fill="#800000"> </tspan>
<tspan x="48" y="82" fill="#800000"> </tspan>
<tspan x="60" y="82" fill="#800000"> </tspan>
<tspan x="72" y="82" fill="#800000"> </tspan>
<tspan x="84" y="82" fill="#800000"> </tspan>
<tspan x="96" y="82" fill="#ffffff">`</tspan>
<tspan x="108" y="82" fill="#ffffff">-</tspan>
<tspan x="120" y="82" fill="#800000">,</tspan>
<tspan x="132" y="82" fill="#800000"> </tspan>
<tspan x="0" y="102" fill="#800000"> </tspan>
<tspan x="12" y="102" fill="#800000">&#x27;</tspan>
<tspan x="24" y="102" fill="#800000">.</tspan>
<tspan x="36" y="102" fill="#800000">_</tspan>
<tspan x="48" y="102" fill="#800000">_</tspan>
<tspan x="60" y="102" fill="#800000">.</tspan>
<tspan x="72" y="102" fill="#4e4e4e">~</tspan>
<tspan x="84" y="102" fill="#800000">.</tspan>
<tspan x="96" y="102" fill="#800000">_</tspan>
<tspan x="108" y="102" fill="#800000">.</tspan>
<tspan x="120" y="102" fill="#800000">&#x27;</tspan>
<tspan x="132" y="102" fill="#800000"> </tspan>
</text>
<animate attributeName="opacity" begin="0s" dur="1.5s" repeatCount="indefinite" calcMode="discrete" values="0;1;0;0;0;0" keyTimes="0;0.2;0.4;0.6;0.8;1" />
</g>

<g opacity="0">
<text x="0" y="0" xml:space="preserve" dominant-baseline="hanging">
<tspan x="0" y="2" fill="#800000"> </tspan>
<tspan x="12" y="2" fill="#800000"> </tspan>
<tspan x="24" y="2" fill="#008000">&lt;</tspan>
<tspan x="36" y="2" fill="#008000">=</tspan>
<tspan x="48" y="2" fill="#008000">&gt;</tspan>
<tspan x="60" y="2" fill="#4e4e4e">\</tspan>
<tspan x="72" y="2" fill="#800000"> </tspan>
<tspan x="84" y="2" fill="#800000"> </tspan>
<tspan x="96" y="2" fill="#800000"> </tspan>
<tspan x="108" y="2" fill="#800000"> </tspan>
<tspan x="120" y="2" fill="#800000"> </tspan>
<tspan x="132" y="2" fill="#800000"> </tspan>
<tspan x="0" y="22" fill="#800000"> </tspan>
<tspan x="12" y="22" fill="#800000"> </tspan>
<tspan x="24" y="22" fill="#800000">,</tspan>
<tspan x="36" y="22" fill="#800000">.</tspan>
<tspan x="48" y="22" fill="#800000">.</tspan>
<tspan x="60" y="22" fill="#4e4e4e">\</tspan>
<tspan x="72" y="22" fill="#4e4e4e">\</tspan>
<tspan x="84" y="22" fill="#800000">.</tspan>
<tspan x="96" y="22" fill="#800000">.</tspan>
<tspan x="108" y="22" fill="#800000">,</tspan>
<tspan x="120" y="22" fill="#800000"> </tspan>
<tspan x="132" y="22" fill="#800000"> </tspan>
<tspan x="0" y="42" fill="#800000"> </tspan>
<tspan x="12" y="42" fill="#800000">&#x27;</tspan>
<tspan x="24" y="42" fill="#800000"> </tspan>
<tspan x="36" y="42" fill="#ff0000">&#x2F;</tspan>
<tspan x="48" y="42" fill="#ff0000">&#x2F;</tspan>
<tspan x="60" y="42" fill="#800000"> </tspan>
<tspan x="72" y="42" fill="#800000"> </tspan>
<tspan x="84" y="42" fill="#800000"> </tspan>
<tspan x="96" y="42" fill="#ffffff">,</tspan>
<tspan x="108" y="42" fill="#ffffff">-</tspan>
<tspan x="120" y="42" fill="#800000">&#x27;</tspan>
<tspan x="132" y="42" fill="#800000"> </tspan>
<tspan x="0" y="62" fill="#800000">|</tspan>
<tspan x="12" y="62" fill="#800000"> </tspan>
<tspan x="24" y="62" fill="#800000"> </tspan>
<tspan x="36" y="62" fill="#800000"> </tspan>
<tspan x="48" y="62" fill="#800000"> </tspan>
<tspan x="60" y="62" fill="#800000"> </tspan>
<tspan x="72" y="62" fill="#800000"> </tspan>
<tspan x="84" y="62" fill="#ffffff">(</tspan>
<tspan x="96" y="62" fill="#800000"> </tspan>
<tspan x="108" y="62" fill="#800000"> </tspan>
<tspan x="120" y="62" fill="#800000"> </tspan>
<tspan x="132" y="62" fill="#800000"> </tspan>
<tspan x="0" y="82" fill="#800000">|</tspan>
<tspan x="12" y="82" fill="#800000"> </tspan>
<tspan x="24" y="82" fill="#800000"> </tspan>
<tspan x="36" y="82" fill="#800000"> </tspan>
<tspan x="48" y="82" fill="#800000"> </tspan>
<tspan x="60" y="82" fill="#800000"> </tspan>
<tspan x="72" y="82" fill="#800000"> </tspan>
<tspan x="84" y="82" fill="#800000"> </tspan>
<tspan x="96" y="82" fill="#ffffff">`</tspan>
<tspan x="108" y="82" fill="#ffffff">-</tspan>
<tspan x="120" y="82" fill="#ffffff">.</tspan>
<tspan x="132" y="82" fill="#800000"> </tspan>
<tspan x="0" y="102" fill="#800000"> </tspan>
<tspan x="12" y="102" fill="#800000">&#x27;</tspan>
<tspan x="24" y="102" fill="#800000">.</tspan>
<tspan x="36" y="102" fill="#800000">_</tspan>
<tspan x="48" y="102" fill="#800000">_</tspan>
<tspan x="60" y="102" fill="#800000">.</tspan>
<tspan x="72" y="102" fill="#4e4e4e">~</tspan>
<tspan x="84" y="102" fill="#800000">.</tspan>
<tspan x="96" y="102" fill="#800000">_</tspan>
<tspan x="108" y="102" fill="#800000">.</tspan>
<tspan x="120" y="102" fill="#800000">&#x27;</tspan>
<tspan x="132" y="102" fill="#800000"> </tspan>
</text>
<animate attributeName="opacity" begin="0s" dur="1.5s" repeatCount="indefinite" calcMode="discrete" values="0;0;1;0;0;0" keyTimes="0;0.2;0.4;0.6;0.8;1" />
</g>

<g opacity="0">
<text x="0" y="0" xml:space="preserve" dominant-baseline="hanging">
<tspan x="0" y="2" fill="#800000"> </tspan>
<tspan x="12" y="2" fill="#800000"> </tspan>
<tspan x="24" y="2" fill="#008000">&lt;</tspan>
<tspan x="36" y="2" fill="#008000">=</tspan>
<tspan x="48" y="2" fill="#008000">&gt;</tspan>
<tspan x="60" y="2" fill="#4e4e4e">\</tspan>
<tspan x="72" y="2" fill="#800000"> </tspan>
<tspan x="84" y="2" fill="#800000"> </tspan>
<tspan x="96" y="2" fill="#800000"> </tspan>
<tspan x="108" y="2" fill="#800000"> </tspan>
<tspan x="120" y="2" fill="#800000"> </tspan>
<tspan x="132" y="2" fill="#800000"> </tspan>
<tspan x="0" y="22" fill="#800000"> </tspan>
<tspan x="12" y="22" fill="#800000"> </tspan>
<tspan x="24" y="22" fill="#800000">,</tspan>
<tspan x="36" y="22" fill="#800000">.</tspan>
<tspan x="48" y="22" fill="#800000">.</tspan>
<tspan x="60" y="22" fill="#4e4e4e">\</tspan>
<tspan x="72" y="22" fill="#4e4e4e">\</tspan>
<tspan x="84" y="22" fill="#800000">.</tspan>
<tspan x="96" y="22" fill="#800000">.</tspan>
<tspan x="108" y="22" fill="#800000">,</tspan>
<tspan x="120" y="22" fill="#800000"> </tspan>
<tspan x="132" y="22" fill="#800000"> </tspan>
<tspan x="0" y="42" fill="#800000"> </tspan>
<tspan x="12" y="42" fill="#800000">&#x27;</tspan>
<tspan x="24" y="42" fill="#800000"> </tspan>
<tspan x="36" y="42" fill="#ff0000">&#x2F;</tspan>
<tspan x="48" y="42" fill="#ff0000">&#x2F;</tspan>
<tspan x="60" y="42" fill="#ffffff">,</tspan>
<tspan x="72" y="42" fill="#ffffff">_</tspan>
<tspan x="84" y="42" fill="#ffffff">.</tspan>
<tspan x="96" y="42" fill="#ffffff">-</tspan>
<tspan x="108" y="42" fill="#ffffff">-</tspan>
<tspan x="120" y="42" fill="#800000">&#x27;</tspan>
<tspan x="132" y="42" fill="#800000"> </tspan>
<tspan x="0" y="62" fill="#800000">|</tspan>
<tspan x="12" y="62" fill="#800000"> </tspan>
<tspan x="24" y="62" fill="#800000"> </tspan>
<tspan x="36" y="62" fill="#800000"> </tspan>
<tspan x="48" y="62" fill="#ffffff">&#x2F;</tspan>
<tspan x="60" y="62" fill="#800000"> </tspan>
<tspan x="72" y="62" fill="#800000"> </tspan>
<tspan x="84" y="62" fill="#ffffff">{</tspan>
<tspan x="96" y="62" fill="#800000"> </tspan>
<tspan x="108" y="62" fill="#800000"> </tspan>
<tspan x="120" y="62" fill="#800000"> </tspan>
<tspan x="132" y="62" fill="#800000"> </tspan>
<tspan x="0" y="82" fill="#800000">|</tspan>
<tspan x="12" y="82" fill="#800000"> </tspan>
<tspan x="24" y="82" fill="#800000"> </tspan>
<tspan x="36" y="82" fill="#800000"> </tspan>
<tspan x="48" y="82" fill="#ffffff">\</tspan>
<tspan x="60" y="82" fill="#ffffff">_</tspan>
<tspan x="72" y="82" fill="#ffffff">,</tspan>
<tspan x="84" y="82" fill="#ffffff">&#x27;</tspan>
<tspan x="96" y="82" fill="#ffffff">&#x27;</tspan>
<tspan x="108" y="82" fill="#ffffff">-</tspan>
<tspan x="120" y="82" fill="#ffffff">.</tspan>
<tspan x="132" y="82" fill="#800000"> </tspan>
<tspan x="0" y="102" fill="#800000"> </tspan>
<tspan x="12" y="102" fill="#800000">&#x27;</tspan>
<tspan x="24" y="102" fill="#800000">.</tspan>
<tspan x="36" y="102" fill="#800000">_</tspan>
<tspan x="48" y="102" fill="#800000">_</tspan>
<tspan x="60" y="102" fill="#800000">.</tspan>
<tspan x="72" y="102" fill="#4e4e4e">~</tspan>
<tspan x="84" y="102" fill="#800000">.</tspan>
<tspan x="96" y="102" fill="#800000">_</tspan>
<tspan x="108" y="102" fill="#800000">.</tspan>
<tspan x="120" y="102" fill="#800000">&#x27;</tspan>
<tspan x="132" y="102" fill="#800000"> </tspan>
</text>
<animate attributeName="opacity" begin="0s" dur="1.5s" repeatCount="indefinite" calcMode="discrete" values="0;0;0;1;0;0" keyTimes="0;0.2;0.4;0.6;0.8;1" />
</g>

<g opacity="0">
<text x="0" y="0" xml:space="preserve" dominant-baseline="hanging">
<tspan x="0" y="2" fill="#800000"> </tspan>
<tspan x="12" y="2" fill="#800000"> </tspan>
<tspan x="24" y="2" fill="#008000">&lt;</tspan>
<tspan x="36" y="2" fill="#008000">=</tspan>
<tspan x="48" y="2" fill="#008000">&gt;</tspan>
<tspan x="60" y="2" fill="#4e4e4e">\</tspan>
<tspan x="72" y="2" fill="#800000"> </tspan>
<tspan x="84" y="2" fill="#800000"> </tspan>
<tspan x="96" y="2" fill="#800000"> </tspan>
<tspan x="108" y="2" fill="#800000"> </tspan>
<tspan x="120" y="2" fill="#800000"> </tspan>
<tspan x="132" y="2" fill="#800000"> </tspan>
<tspan x="0" y="22" fill="#800000"> </tspan>
<tspan x="12" y="22" fill="#800000"> </tspan>
<tspan x="24" y="22" fill="#800000">,</tspan>
<tspan x="36" y="22" fill="#800000">.</tspan>
<tspan x="48" y="22" fill="#800000">.</tspan>
<tspan x="60" y="22" fill="#4e4e4e">\</tspan>
<tspan x="72" y="22" fill="#4e4e4e">\</tspan>
<tspan x="84" y="22" fill="#800000">.</tspan>
<tspan x="96" y="22" fill="#800000">.</tspan>
<tspan x="108" y="22" fill="#800000">,</tspan>
<tspan x="120" y="22" fill="#800000"> </tspan>
<tspan x="132" y="22" fill="#800000"> </tspan>
<tspan x="0" y="42" fill="#800000"> </tspan>
<tspan x="12" y="42" fill="#800000">&#x27;</tspan>
<tspan x="24" y="42" fill="#ffffff">,</tspan>
<tspan x="36" y="42" fill="#ffffff">-</tspan>
<tspan x="48" y="42" fill="#ffffff">-</tspan>
<tspan x="60" y="42" fill="#ffffff">,</tspan>
<tspan x="72" y="42" fill="#ffffff">_</tspan>
<tspan x="84" y="42" fill="#ffffff">.</tspan>
<tspan x="96" y="42" fill="#ffffff">-</tspan>
<tspan x="108" y="42" fill="#ffffff">-</tspan>
<tspan x="120" y="42" fill="#ffffff">&#x27;</tspan>
<tspan x="132" y="42" fill="#800000"> </tspan>
<tspan x="0" y="62" fill="#ffffff"> </tspan>
<tspan x="12" y="62" fill="#ffffff"> </tspan>
<tspan x="24" y="62" fill="#ffffff"> </tspan>
<tspan x="36" y="62" fill="#ffffff"> </tspan>
<tspan x="48" y="62" fill="#ffffff">}</tspan>
<tspan x="60" y="62" fill="#ffffff"> </tspan>
<tspan x="72" y="62" fill="#ffffff"> </tspan>
<tspan x="84" y="62" fill="#ffffff">{</tspan>
<tspan x="96" y="62" fill="#ffffff"> </tspan>
<tspan x="108" y="62" fill="#ffffff"> </tspan>
<tspan x="120" y="62" fill="#ffffff"> </tspan>
<tspan x="132" y="62" fill="#ffffff"> </tspan>
<tspan x="0" y="82" fill="#ffffff"> </tspan>
<tspan x="12" y="82" fill="#ffffff"> </tspan>
<tspan x="24" y="82" fill="#ffffff">,</tspan>
<tspan x="36" y="82" fill="#ffffff">-</tspan>
<tspan x="48" y="82" fill="#ffffff">,</tspan>
<tspan x="60" y="82" fill="#ffffff">_</tspan>
<tspan x="72" y="82" fill="#ffffff">,</tspan>
<tspan x="84" y="82" fill="#ffffff">&#x27;</tspan>
<tspan x="96" y="82" fill="#ffffff">&#x27;</tspan>
<tspan x="108" y="82" fill="#ffffff">-</tspan>
<tspan x="120" y="82" fill="#ffffff">.</tspan>
<tspan x="132" y="82" fill="#800000"> </tspan>
<tspan x="0" y="102" fill="#800000"> </tspan>
<tspan x="12" y="102" fill="#800000">&#x27;</tspan>
<tspan x="24" y="102" fill="#800000">.</tspan>
<tspan x="36" y="102" fill="#800000">_</tspan>
<tspan x="48" y="102" fill="#800000">_</tspan>
<tspan x="60" y="102" fill="#800000">.</tspan>
<tspan x="72" y="102" fill="#4e4e4e">~</tspan>
<tspan x="84" y="102" fill="#800000">.</tspan>
<tspan x="96" y="102" fill="#800000">_</tspan>
<tspan x="108" y="102" fill="#800000">.</tspan>
<tspan x="120" y="102" fill="#800000">&#x27;</tspan>
<tspan x="132" y="102" fill="#800000"> </tspan>
</text>
<animate attributeName="opacity" begin="0s" dur="1.5s" repeatCount="indefinite" calcMode="discrete" values="0;0;0;0;1;0" keyTimes="0;0.2;0.4;0.6;0.8;1" />
</g>

</svg>

